<svg xmlns="http://www.w3.org/2000/svg" viewBox="0 0 64 64" id="real-estate-sale" fill="#fff"><g data-name="Outline"><path d="M58 54h-4l.084-27.861 1.009.7a3.933 3.933 0 1 0 4.471-6.473L33.713 2.533a3.032 3.032 0 0 0-3.426 0L4.433 20.364A3.933 3.933 0 1 0 8.9 26.837l1.009-.7L10 54H6a4 4 0 0 0 0 8h52a4 4 0 0 0 0-8ZM7.766 25.192a1.934 1.934 0 1 1-2.2-3.181L31.422 4.18a1.022 1.022 0 0 1 1.156 0l25.855 17.831a1.934 1.934 0 1 1-2.2 3.181L33.718 9.6a3.038 3.038 0 0 0-3.436 0Zm44.325-.435L52 54H12l-.088-29.243 19.509-13.508a1.021 1.021 0 0 1 1.158 0ZM58 60H6a2 2 0 0 1 0-4h52a2 2 0 0 1 0 4Z"></path><path d="M27 35.785a4 4 0 1 0-4-4 4 4 0 0 0 4 4zm0-6a2 2 0 1 1-2 2 2 2 0 0 1 2-2zm12 10a4 4 0 1 0 4 4 4 4 0 0 0-4-4zm0 6a2 2 0 1 1 2-2 2 2 0 0 1-2 2zm-14.207.207a3.145 3.145 0 0 0 4.41-.013l11.918-12.072a3 3 0 0 0 0-4.243 3.077 3.077 0 0 0-4.238-.005L24.806 41.583a3.145 3.145 0 0 0-.013 4.409zm1.418-2.986 12.083-11.928A1 1 0 1 1 39.7 32.5L27.78 44.573a1.109 1.109 0 1 1-1.569-1.567z"></path></g></svg>