<svg xmlns="http://www.w3.org/2000/svg" xmlns:xlink="http://www.w3.org/1999/xlink" viewBox="0 0 505.33 303.86"><defs><style>.cls-1,.cls-2{fill:none;}.cls-2{stroke:#fff;stroke-miterlimit:10;stroke-dasharray:3 3;}.cls-3{clip-path:url(#clip-path);}.cls-4{fill:#8bc3a2;}.cls-5{fill:#bc6374;}.cls-6{fill:#d4eee1;}.cls-7{fill:#0b0146;}</style><clipPath id="clip-path"><rect class="cls-1" x="277.26" width="228.07" height="156.58"/></clipPath></defs><title>Asset 10</title><g id="Layer_2" data-name="Layer 2"><g id="Layer_1-2" data-name="Layer 1"><path class="cls-2" d="M0,299.9c14.37,0,29,2.81,43.55,3.36,27.71,1,54.75-6.31,79.53-15.4,25.39-9.31,50.7-21.62,62.51-40.43,7.84-12.49,8.91-26.58,13.61-39.87s14.83-27,32.65-31.57c11.93-3,25.08-1.37,37.63-2.48,24.14-2.13,44.08-14.19,62.5-25.74"/><g class="cls-3"><path d="M501.16,0c2.95,0,4.75,2.51,4,5.75q-10.95,47.33-21.93,94.65-6,25.78-12,51.56c-1,4.46-3.89,5.82-7.44,3.53q-27.65-17.85-55.27-35.73a1.9,1.9,0,0,0-2.61.07q-12.58,9.84-25.24,19.61c-4.66,3.62-9.3,7.24-14,10.85-2.85,2.2-6.53,1-7.15-2.35-1.41-7.47-3.34-14.83-5-22.24-1.43-6.35-2.94-12.69-4.4-19-1.56-6.74-3.14-13.48-4.65-20.24a2.06,2.06,0,0,0-2.1-1.8q-29.57-3.6-59.15-7.28a35.34,35.34,0,0,1-3.83-.56,4,4,0,0,1-3.1-3.31,4.16,4.16,0,0,1,2.1-4.47,13.31,13.31,0,0,1,2.73-1.06c15.2-4.82,30.49-9.32,45.66-14.21,20.34-6.58,40.86-12.55,61.2-19.1,19.17-6.17,38.51-11.78,57.66-18,8.67-2.82,17.41-5.37,26.12-8,0-.05,0-.1,0-.14q13.07-4,26.13-8a8.27,8.27,0,0,1,2.26-.5M465.75,150.82l35-142.72L283.89,72.66,348,81.8l20.21,62.89,35.63-34.2Z"/><path d="M500.73,8.1l-35,142.72-61.91-40.33-35.63,34.2L348,81.8l-64.11-9.14Zm-6.76,8c.1-.4.17-.8.31-1.47l-6.77,5L403.32,81.88,387.48,93.6c-1.72,1.29-1.73,1.31.14,2.52q15.58,10.06,31.18,20.09l42.88,27.7c2.32,1.5,2.28,1.52,2.9-1.12q6.41-27.67,12.84-55.32Q485.7,51.79,494,16.11M457.33,31.29a5.13,5.13,0,0,0,.35-.41c-6.33,3.2-12.48,6.32-18.63,9.41q-25.41,12.78-50.83,25.53-16.55,8.33-33.1,16.65A1.92,1.92,0,0,0,354,85.05c1.94,8.14,3.77,16.31,5.65,24.47,1.37,6,2.77,12,4.15,18,.1.4.24.78.36,1.17.1,0,.21,0,.31,0q2.78-10,5.56-20c1.28-4.63,2.58-9.26,3.84-13.9a6.13,6.13,0,0,1,2.4-3.49q16-11.77,31.94-23.6l49.14-36.32m-5.88-6.9v-.16l-149,46.47a2,2,0,0,0,0,.24l10.26,1.26q16.86,2.07,33.73,4.17a5.08,5.08,0,0,0,3-.57q22.5-11.35,45-22.69,23.7-11.91,47.39-23.79c3.24-1.62,6.45-3.28,9.67-4.93m-55,91.93c.93-.72,2.55-1.29,2.55-2.29s-1.69-1.44-2.66-2.07c-4.76-3.12-9.54-6.19-14.32-9.28-.66-.42-1.25-1-1.63.36-2.88,10.58-5.81,21.14-8.71,31.72-.05.19-.06.39-.13.91,8.49-6.59,16.71-13,24.9-19.35"/><path class="cls-4" d="M494.28,14.64c-.14.67-.22,1.07-.31,1.47q-8.28,35.67-16.55,71.35-6.42,27.67-12.84,55.33c-.62,2.63-.58,2.62-2.9,1.12l-42.88-27.7q-15.58-10-31.18-20.09c-1.87-1.21-1.86-1.23-.14-2.52l15.84-11.72,84.19-62.26,6.77-5"/><path class="cls-5" d="M457.68,30.88a3.68,3.68,0,0,1-.35.41L408.19,67.61q-16,11.81-31.94,23.6a6.16,6.16,0,0,0-2.4,3.49c-1.26,4.64-2.56,9.27-3.84,13.91q-2.79,10-5.56,20c-.1,0-.21,0-.31,0-.12-.39-.26-.77-.36-1.17-1.38-6-2.78-12-4.15-18-1.88-8.16-3.71-16.33-5.65-24.46a1.93,1.93,0,0,1,1.14-2.59q16.58-8.31,33.1-16.65,25.41-12.76,50.83-25.53c6.15-3.09,12.3-6.21,18.63-9.41"/><path class="cls-6" d="M451.45,24.23v.16c-3.22,1.65-6.43,3.31-9.67,4.93Q418.1,41.23,394.39,53.11q-22.51,11.33-45,22.69a5.08,5.08,0,0,1-3,.57q-16.87-2.12-33.73-4.17l-10.26-1.26a2,2,0,0,1,0-.24l149-46.47"/><path class="cls-7" d="M399,114c0,1-1.62,1.57-2.55,2.29-8.19,6.39-16.41,12.76-24.9,19.35.07-.52.08-.72.13-.91,2.9-10.58,5.83-21.14,8.71-31.72.38-1.37,1-.78,1.63-.36,4.78,3.09,9.56,6.16,14.32,9.28,1,.63,2.65,1.05,2.66,2.07"/></g></g></g></svg>