<svg xmlns="http://www.w3.org/2000/svg" xmlns:xlink="http://www.w3.org/1999/xlink" viewBox="0 0 224.68 68.34"><defs><style>.cls-1{fill:none;}.cls-2{clip-path:url(#clip-path);}.cls-3{fill:#010103;}.cls-4{fill:#383a97;}</style><clipPath id="clip-path"><rect class="cls-1" width="224.68" height="68.34"/></clipPath></defs><title>Asset 2</title><g id="Layer_2" data-name="Layer 2"><g id="Layer_1-2" data-name="Layer 1"><g class="cls-2"><g class="cls-2"><path class="cls-3" d="M6.16,28a6.12,6.12,0,1,0,6,7.76L155.75,35A34.47,34.47,0,1,0,190.21,0a34.36,34.36,0,0,0-34.45,32.85L12.32,33.6A6.15,6.15,0,0,0,6.16,28M157.9,34.17a32.31,32.31,0,1,1,32.31,32,32.18,32.18,0,0,1-32.31-32"/><path class="cls-3" d="M190.21,2.14a32,32,0,1,0,32.3,32,32.18,32.18,0,0,0-32.3-32M179.77,38.83l-12.16-4.28,12.16-4.29-5.54-11.55,11.65,5.49,4.33-12,4.32,12,11.65-5.49-5.54,11.55,12.16,4.29-12.16,4.28,5.54,11.55-11.65-5.49-4.32,12-4.33-12-11.65,5.49Z"/><polygon class="cls-4" points="167.61 34.55 179.77 38.83 174.23 50.38 185.88 44.89 190.21 56.94 194.53 44.89 206.18 50.38 200.64 38.83 212.8 34.55 200.64 30.26 206.18 18.71 194.53 24.2 190.21 12.16 185.88 24.2 174.23 18.71 179.77 30.26 167.61 34.55"/></g></g></g></g></svg>