<svg xmlns="http://www.w3.org/2000/svg" xmlns:xlink="http://www.w3.org/1999/xlink" viewBox="0 0 33.32 33.32"><defs><style>.cls-1{fill:none;}.cls-2{clip-path:url(#clip-path);}.cls-3{fill:#fff;}.cls-4{fill:#151315;}</style><clipPath id="clip-path" transform="translate(0 0)"><rect class="cls-1" width="33.32" height="33.32"/></clipPath></defs><title>Asset 8</title><g id="Layer_2" data-name="Layer 2"><g id="Layer_1-2" data-name="Layer 1"><g class="cls-2"><g class="cls-2"><path class="cls-3" d="M16.66,0A16.66,16.66,0,1,1,6.71,30L2.53,32.25A1.33,1.33,0,0,1,1,32.07a1.35,1.35,0,0,1-.34-1.53l2-4.82A16.66,16.66,0,0,1,16.66,0m15,16.66a15,15,0,0,0-30.08,0,14.91,14.91,0,0,0,2.7,8.59l.46.66-.6.42L2.44,30.46,6.88,28.1l.42.33A15,15,0,0,0,31.7,16.66" transform="translate(0 0)"/><path class="cls-4" d="M16.66,1.62A15,15,0,1,1,7.3,28.43l-.42-.33L2.44,30.46l1.74-4.13.6-.42-.46-.66a14.91,14.91,0,0,1-2.7-8.59,15.06,15.06,0,0,1,15-15" transform="translate(0 0)"/></g></g><path class="cls-3" d="M12.56,16.69a1.83,1.83,0,1,1-1.83-1.82,1.83,1.83,0,0,1,1.83,1.82" transform="translate(0 0)"/><path class="cls-3" d="M18.06,16.69a1.83,1.83,0,1,1-1.82-1.82,1.82,1.82,0,0,1,1.82,1.82" transform="translate(0 0)"/><path class="cls-3" d="M23.94,16.69a1.83,1.83,0,1,1-1.83-1.82,1.83,1.83,0,0,1,1.83,1.82" transform="translate(0 0)"/></g></g></svg>