<svg xmlns="http://www.w3.org/2000/svg" viewBox="0 0 102.84 24.46"><defs><style>.cls-1{fill:#8fc8cd;}.cls-2{fill:#010103;}.cls-3{fill:#151755;}</style></defs><title>Asset 2</title><g id="Layer_2" data-name="Layer 2"><g id="Layer_1-2" data-name="Layer 1"><path class="cls-1" d="M23.35,12.23A11.12,11.12,0,1,1,12.23,1.11,11.12,11.12,0,0,1,23.35,12.23"/><path class="cls-2" d="M12.23,24.46A12.23,12.23,0,1,1,24.46,12.23,12.24,12.24,0,0,1,12.23,24.46m0-22.24a10,10,0,1,0,10,10,10,10,0,0,0-10-10"/><path class="cls-2" d="M62.54,12.23A11.12,11.12,0,1,1,51.42,1.11,11.12,11.12,0,0,1,62.54,12.23"/><path class="cls-2" d="M51.42,24.46A12.23,12.23,0,1,1,63.65,12.23,12.24,12.24,0,0,1,51.42,24.46m0-22.24a10,10,0,1,0,10,10,10,10,0,0,0-10-10"/><path class="cls-3" d="M101.73,12.23A11.12,11.12,0,1,1,90.61,1.11a11.12,11.12,0,0,1,11.12,11.12"/><path class="cls-2" d="M90.61,24.46a12.23,12.23,0,1,1,12.23-12.23A12.24,12.24,0,0,1,90.61,24.46m0-22.24a10,10,0,1,0,10,10,10,10,0,0,0-10-10"/></g></g></svg>