<svg xmlns="http://www.w3.org/2000/svg" viewBox="0 0 620.17 411.37"><defs><style>.cls-1{fill:none;stroke:#010103;stroke-miterlimit:10;stroke-width:6px;}.cls-2{fill:#e7e6e0;}.cls-3{fill:#8fc8cd;}.cls-4{fill:#010103;}.cls-5{fill:#383a97;}.cls-6{fill:#151755;}</style></defs><title>Asset 4</title><g id="Layer_2" data-name="Layer 2"><g id="Layer_1-2" data-name="Layer 1"><rect class="cls-1" x="3" y="35.36" width="614.17" height="373.01" rx="12"/><path class="cls-2" d="M605.17,57.69H15a12,12,0,0,1-12-12V15A12,12,0,0,1,15,3H605.17a12,12,0,0,1,12,12V45.69a12,12,0,0,1-12,12"/><rect class="cls-1" x="3" y="3" width="614.17" height="54.69" rx="12"/><path class="cls-3" d="M505.32,30.76A10.76,10.76,0,1,1,494.57,20a10.75,10.75,0,0,1,10.75,10.76"/><path class="cls-4" d="M494.57,42.59A11.83,11.83,0,1,1,506.4,30.76a11.84,11.84,0,0,1-11.83,11.83m0-21.52a9.69,9.69,0,1,0,9.68,9.69,9.7,9.7,0,0,0-9.68-9.69"/><path class="cls-5" d="M543.23,30.76A10.76,10.76,0,1,1,532.48,20a10.75,10.75,0,0,1,10.75,10.76"/><path class="cls-4" d="M532.48,42.59a11.83,11.83,0,1,1,11.83-11.83,11.84,11.84,0,0,1-11.83,11.83m0-21.52a9.69,9.69,0,1,0,9.68,9.69,9.7,9.7,0,0,0-9.68-9.69"/><path class="cls-6" d="M581.14,30.76A10.76,10.76,0,1,1,570.38,20a10.76,10.76,0,0,1,10.76,10.76"/><path class="cls-4" d="M570.38,42.59a11.83,11.83,0,1,1,11.83-11.83,11.85,11.85,0,0,1-11.83,11.83m0-21.52a9.69,9.69,0,1,0,9.69,9.69,9.7,9.7,0,0,0-9.69-9.69"/></g></g></svg>