<svg xmlns="http://www.w3.org/2000/svg" viewBox="0 0 614.17 54.69"><defs><style>.cls-1{fill:#e7e6e0;}.cls-2{fill:#8fc8cd;}.cls-3{fill:#010103;}.cls-4{fill:#383a97;}.cls-5{fill:#151755;}</style></defs><title>Asset 5</title><g id="Layer_2" data-name="Layer 2"><g id="Layer_1-2" data-name="Layer 1"><path class="cls-1" d="M602.17,54.69H12a12,12,0,0,1-12-12V12A12,12,0,0,1,12,0H602.17a12,12,0,0,1,12,12V42.69a12,12,0,0,1-12,12"/><path class="cls-2" d="M502.32,27.76A10.76,10.76,0,1,1,491.57,17a10.75,10.75,0,0,1,10.75,10.76"/><path class="cls-3" d="M491.57,39.59A11.83,11.83,0,1,1,503.4,27.76a11.84,11.84,0,0,1-11.83,11.83m0-21.52a9.69,9.69,0,1,0,9.68,9.69,9.7,9.7,0,0,0-9.68-9.69"/><path class="cls-4" d="M540.23,27.76A10.76,10.76,0,1,1,529.48,17a10.75,10.75,0,0,1,10.75,10.76"/><path class="cls-3" d="M529.48,39.59a11.83,11.83,0,1,1,11.83-11.83,11.84,11.84,0,0,1-11.83,11.83m0-21.52a9.69,9.69,0,1,0,9.68,9.69,9.7,9.7,0,0,0-9.68-9.69"/><path class="cls-5" d="M578.14,27.76A10.76,10.76,0,1,1,567.38,17a10.76,10.76,0,0,1,10.76,10.76"/><path class="cls-3" d="M567.38,39.59a11.83,11.83,0,1,1,11.83-11.83,11.85,11.85,0,0,1-11.83,11.83m0-21.52a9.69,9.69,0,1,0,9.69,9.69,9.7,9.7,0,0,0-9.69-9.69"/></g></g></svg>