<svg version="1.2" xmlns="http://www.w3.org/2000/svg" viewBox="0 0 924 450" width="924" height="450">
	<title>Untitled (1)-svg</title>
	<style>
		tspan { white-space:pre } 
		.s0 { opacity: 0;fill: #ffffff } 
		.s1 { fill: #000000 } 
		.t2 { font-size: 134px;fill: #ffffff;font-weight: 800;font-style: italic;font-family: "NotoSans-ExtraBoldItalic", "Noto Sans" } 
		.t3 { font-size: 80px;fill: #ffffff;font-weight: 800;font-style: italic;font-family: "NotoSans-ExtraBoldItalic", "Noto Sans" } 
		.s4 { fill: #100d0f } 
		.s5 { fill: none;stroke: #ffffff;stroke-miterlimit:10;stroke-width: 1.2 } 
		.s6 { fill: #ffffff;stroke: #ffffff;stroke-miterlimit:10;stroke-width: 1.2 } 
		.s7 { fill: #ffffff } 
	</style>
	<path id="Layer" class="s0" d="m-37-241h1000v1000h-1000z"/>
	<g id="Layer_1-2">
		<path id="Layer" class="s1" d="m17.6 248.3l-9.1 195 884-105.8 25-200.3-899.9 111.1z"/>
	</g>
	<g id="Layer_1-2">
		<path id="Layer" class="s1" d="m143.6 100l-5.1 124.9 323.9-40 2.7-136-321.5 51.1z"/>
	</g>
	<g id="Layer_1-2">
		<text id="I" style="transform: matrix(1.638,-0.199,.199,1.638,57.215,421.53)" >
			<tspan x="0" y="0" class="t2">I
</tspan>
		</text>
	</g>
	<g id="Layer_1-2">
		<text id="N" style="transform: matrix(1.638,-0.199,.199,1.638,185.778,405.647)" >
			<tspan x="0" y="0" class="t2">N
</tspan>
		</text>
	</g>
	<g id="Layer_1-2">
		<text id="T" style="transform: matrix(1.638,-0.199,.199,1.638,395.208,379.789)" >
			<tspan x="0" y="0" class="t2">T
</tspan>
		</text>
	</g>
	<g id="Layer_1-2">
		<text id="R" style="transform: matrix(1.642,-0.203,.203,1.642,554.084,360.192)" >
			<tspan x="0" y="0" class="t2">R
</tspan>
		</text>
	</g>
	<g id="Layer_1-2">
		<text id="O" style="transform: matrix(1.642,-0.203,.203,1.642,732.081,338.205)" >
			<tspan x="0" y="0" class="t2">O
</tspan>
		</text>
	</g>
	<g id="Layer_1-2">
		<text id="O" style="transform: matrix(1.642,-0.203,.203,1.642,150.6,205.826)" >
			<tspan x="0" y="0" class="t3">O
</tspan>
		</text>
	</g>
	<g id="Layer_1-2">
		<text id="P" style="transform: matrix(1.642,-0.203,.203,1.642,274.547,190.523)" >
			<tspan x="0" y="0" class="t3">P
</tspan>
		</text>
	</g>
	<g id="Layer_1-2">
		<text id="S" style="transform: matrix(1.642,-0.203,.203,1.642,383.042,177.139)" >
			<tspan x="0" y="0" class="t3">S
</tspan>
		</text>
	</g>
	<g id="Layer_1-2">
		<path id="Layer" class="s4" d="m474.7 50l-4.7 132.2 224.1-28.2-219.4-104z"/>
	</g>
	<g id="Layer_1-2">
		<path id="Layer" class="s5" d="m182.2 225.8l-9.9 204.8"/>
	</g>
	<g id="Layer_1-2">
		<path id="Layer" class="s5" d="m374.8 200.9l-9.9 205.4"/>
	</g>
	<g id="Layer_1-2">
		<path id="Layer" class="s5" d="m541.5 179l-9.9 205.9"/>
	</g>
	<g id="Layer_1-2">
		<path id="Layer" class="s5" d="m702.7 160.1l-10.1 208.5"/>
	</g>
	<g id="Layer_1-2">
		<path id="Layer" class="s6" d="m259.8 71.9l-6.8 140.6"/>
	</g>
	<g id="Layer_1-2">
		<path id="Layer" class="s6" d="m368.7 60.4l-6.7 140.5"/>
	</g>
	<g id="Layer_1-2">
		<path id="Layer" class="s7" d="m716.2 93.7l-130.6 124.5-37.3-82.7-59.5 11.8 20.7-78.4-60.3-51.9 267 76.7z"/>
	</g>
	<g id="Layer_1-2">
		<path id="Layer" fill-rule="evenodd" class="s1" d="m687 75.6q16.3 4.6 32.4 9.2 0.3 0 0.7 0.1 0.3 0.1 0.6 0.3 0.4 0.1 0.7 0.2 0.3 0.2 0.6 0.3c3.1 1.9 3.3 5.8 0.4 8.6q-42.7 41.7-85.3 83.3l-46.5 45.5c-4 3.9-7.8 3.4-10-1.3q-16.8-36.8-33.5-73.5-0.1-0.5-0.4-0.8-0.3-0.4-0.7-0.6-0.3-0.2-0.8-0.3-0.4-0.1-0.9 0c-13 1.2-26 2.4-39 3.6-7.2 0.7-14.5 1.3-21.7 2-4.4 0.3-7.4-3.3-5.8-7.2 3.5-8.7 6.3-17.5 9.5-26.3 2.7-7.5 5.4-15.1 8.1-22.6 2.8-8 5.6-16 8.5-24q0.3-0.5 0.3-0.9 0.1-0.5-0.1-1-0.1-0.4-0.4-0.8-0.3-0.4-0.7-0.6-28.3-23.3-56.5-46.7-0.4-0.3-0.9-0.7-0.5-0.4-0.9-0.8-0.5-0.4-0.9-0.8-0.4-0.4-0.9-0.8-0.5-0.5-0.8-1.1-0.4-0.7-0.5-1.4-0.2-0.7-0.1-1.5 0.1-0.7 0.4-1.4 0.3-0.8 0.8-1.4 0.5-0.6 1.2-1.1 0.7-0.4 1.5-0.6 0.8-0.2 1.6-0.2 0.5 0 0.9 0.1 0.5 0.1 0.9 0.2 0.5 0.1 0.9 0.2 0.4 0.1 0.9 0.2c18.9 5.1 37.6 10.6 56.6 15.5 25.4 6.6 50.6 14.1 75.9 20.8 23.9 6.3 47.7 13.2 71.6 19.5 10.8 2.9 21.5 6 32.3 9q0 0 0 0 0-0.1 0-0.1 0 0 0 0 0 0 0-0.1m7.9 21.3l-128.3 8.7-24.1 1.7c-2.6 0.1-2.7 0.2-1.5 2.6q9.5 20.8 18.9 41.4 13.1 28.5 26.1 57c1.4 3.1 1.3 3.1 3.7 0.8q24.9-24.4 49.9-48.8l64.3-62.8 1.3-1.3-10.3 0.6zm-225.2-69.6l-0.1 0.2 9.7 8.1q16.1 13.4 32.2 26.7 0.3 0.3 0.7 0.5 0.4 0.2 0.9 0.4 0.4 0.2 0.9 0.3 0.5 0.1 0.9 0.1l61.6 6.3q32.4 3.3 64.7 6.7c4.5 0.5 8.9 0.9 13.3 1.3l0.1-0.1zm44.8 83.9q6.6-5.9 13.2-11.8 0.5-0.5 1.1-0.8 0.6-0.4 1.2-0.6 0.6-0.3 1.2-0.5 0.7-0.1 1.3-0.1 24.4-1.7 48.7-3.4l74.8-5q0.1 0 0.2 0 0.1-0.1 0.2-0.1 0 0 0.1 0 0.1-0.1 0.2-0.1c-8.7-0.9-17.1-1.6-25.5-2.6l-69.5-7.2q-22.7-2.3-45.3-4.7-0.5-0.1-1 0-0.5 0.1-0.9 0.3-0.4 0.3-0.7 0.7-0.2 0.4-0.3 0.9c-3.3 9.7-6.9 19.4-10.4 29.1l-7.5 21.3c-0.2 0.5-0.3 1-0.4 1.4l0.3 0.2q9.5-8.5 19-17zm22.3 25.5c1.4-0.2 3.5 0.3 4.1-0.7 0.7-1.1-0.8-2.6-1.4-3.9-2.8-6.4-5.7-12.8-8.6-19.1-0.4-0.9-0.7-1.9-1.9-0.7q-14.9 13.5-30 27c-0.2 0.2-0.4 0.4-0.8 0.9 13.3-1.2 25.9-2.4 38.6-3.5z"/>
	</g>
</svg>