<svg xmlns="http://www.w3.org/2000/svg" viewBox="0 0 59.51 45.29" fill="#fff"><title>Asset 3</title><g id="Layer_2" data-name="Layer 2"><g id="Layer_1-2" data-name="Layer 1"><path d="M51.65,13.74l6.79,1.9a2.07,2.07,0,0,1,.56.2,1.09,1.09,0,0,1,.07,1.81L41.13,35.19l-9.78,9.55c-.84.82-1.65.73-2.1-.27Q25.71,36.75,22.19,29a.5.5,0,0,0-.57-.35l-8.22.76-4.55.41a1.11,1.11,0,0,1-1.23-1.51c.73-1.82,1.34-3.69,2-5.53.58-1.58,1.13-3.17,1.7-4.75s1.19-3.38,1.8-5.06a.53.53,0,0,0-.2-.68Q7,7.41,1.06,2.49C.81,2.27.54,2.07.31,1.83A1,1,0,0,1,.09.68,1.09,1.09,0,0,1,1.17,0a3,3,0,0,1,.74.15c4,1.07,7.93,2.22,11.91,3.26,5.34,1.4,10.64,3,16,4.36,5,1.33,10,2.8,15.05,4.12,2.27.59,4.53,1.25,6.8,1.89v0m1.65,4.47L26.32,20l-5.07.35c-.56,0-.56,0-.32.56q2,4.36,4,8.71,2.74,6,5.48,12c.29.64.29.64.79.15L41.67,31.57,55.2,18.35l.27-.28-2.17.14M5.93,3.57l0,.05L8,5.32l6.75,5.6a1.26,1.26,0,0,0,.73.29l13,1.33L42,14l2.79.27,0,0L5.93,3.57m9.43,17.65,2.77-2.49a1.65,1.65,0,0,1,1-.43l10.23-.69,15.75-1.06.13,0L39.89,16,25.28,14.45l-9.52-1a.5.5,0,0,0-.61.4C14.44,15.91,13.7,17.94,13,20c-.54,1.5-1.07,3-1.6,4.49,0,.1-.06.2-.09.3l.08,0,4-3.58M20,26.58c.3,0,.74.07.87-.15s-.16-.54-.29-.82c-.6-1.34-1.21-2.67-1.82-4-.08-.18-.13-.39-.4-.15l-6.31,5.69-.16.18L20,26.58"/></g></g></svg>