<svg xmlns="http://www.w3.org/2000/svg" viewBox="0 0 549.5 300.64"><defs><style>.cls-1{fill:#fff;}.cls-2{font-size:133.84px;}.cls-2,.cls-3,.cls-4,.cls-5,.cls-6{font-family:NotoSans-ExtraBoldItalic, Noto Sans;font-weight:800;font-style:italic;}.cls-3{font-size:133.84px;}.cls-4{font-size:80.3px;}.cls-5{font-size:80.3px;}.cls-6{font-size:80.3px;}.cls-7{fill:#100d0f;}.cls-8{fill:none;stroke:#000;stroke-miterlimit:10;stroke-width:0.75px;}</style></defs><title>Asset 17</title><g id="Layer_2" data-name="Layer 2"><g id="Layer_1-2" data-name="Layer 1"><polygon class="cls-1" points="5.53 143.84 0 261.69 534.36 197.79 549.5 76.69 5.53 143.84"/><polygon class="cls-1" points="81.67 54.2 78.59 129.69 274.38 105.55 276.01 23.32 81.67 54.2"/><text class="cls-2" transform="matrix(0.99, -0.12, 0.12, 0.99, 29.46, 248.45)">I</text><text class="cls-3" transform="matrix(0.99, -0.12, 0.12, 0.99, 107.17, 238.85)">N</text><text class="cls-3" transform="matrix(0.99, -0.12, 0.12, 0.99, 233.76, 223.22)">T</text><text class="cls-3" transform="translate(329.79 211.37) rotate(-7.04)">R</text><text class="cls-3" transform="translate(437.38 198.08) rotate(-7.04)">O</text><text class="cls-4" transform="translate(85.91 118.11) rotate(-7.04)">O</text><text class="cls-5" transform="translate(160.83 108.86) rotate(-7.04)">P</text><text class="cls-6" transform="translate(226.41 100.77) rotate(-7.04)">S</text><polygon class="cls-7" points="281.82 23.97 278.96 103.87 414.42 86.86 281.82 23.97"/><line class="cls-8" x1="105.02" y1="130.23" x2="99.06" y2="254.04"/><line class="cls-8" x1="221.41" y1="115.2" x2="215.44" y2="239.33"/><line class="cls-8" x1="322.19" y1="101.97" x2="316.2" y2="226.39"/><line class="cls-8" x1="419.61" y1="90.54" x2="413.55" y2="216.55"/><line class="cls-8" x1="151.91" y1="37.25" x2="147.82" y2="122.21"/><line class="cls-8" x1="217.77" y1="30.25" x2="213.69" y2="115.22"/><polygon class="cls-1" points="427.81 50.43 348.87 125.67 326.28 75.7 290.33 82.83 302.85 35.42 266.43 4.07 427.81 50.43"/><path d="M410.17,39.49Q420,42.22,429.71,45a6.33,6.33,0,0,1,1.61.59c1.86,1.15,2,3.47.2,5.19Q405.75,75.95,380,101.14l-28.1,27.45c-2.42,2.37-4.75,2.08-6.05-.77q-10.16-22.21-20.27-44.44a1.43,1.43,0,0,0-1.66-1c-7.87.75-15.75,1.45-23.62,2.17-4.36.4-8.72.81-13.08,1.19-2.67.23-4.47-2-3.54-4.33,2.11-5.23,3.85-10.6,5.77-15.9,1.65-4.54,3.24-9.11,4.86-13.66,1.72-4.85,3.43-9.69,5.19-14.52a1.52,1.52,0,0,0-.59-2Q281.81,21.28,264.79,7.15a25.87,25.87,0,0,1-2.17-1.88A2.92,2.92,0,0,1,262,2a3.1,3.1,0,0,1,3.1-2,9.67,9.67,0,0,1,2.14.43C278.67,3.49,290,6.8,301.47,9.8c15.34,4,30.56,8.5,45.9,12.54,14.45,3.81,28.78,8,43.23,11.82,6.54,1.72,13,3.62,19.55,5.43a.44.44,0,0,1,0-.1m4.77,12.85L337.4,57.6l-14.59,1c-1.6.11-1.61.12-.92,1.62q5.73,12.52,11.45,25,7.88,17.22,15.74,34.46c.85,1.86.82,1.86,2.26.46q15.07-14.73,30.16-29.45l38.88-38,.78-.8-6.22.4M278.79,10.25l-.09.15,5.9,4.89q9.72,8.06,19.42,16.1a3.76,3.76,0,0,0,2.1.84L343.33,36q19.56,2,39.14,4.08c2.67.28,5.34.53,8,.79l.07-.11L278.79,10.25M305.88,61q4-3.57,8-7.15a4.59,4.59,0,0,1,2.9-1.23q14.7-1,29.4-2l45.25-3.06a1.85,1.85,0,0,0,.38-.11c-5.24-.54-10.32-1-15.4-1.57l-42-4.37Q320.71,40.11,307,38.69a1.43,1.43,0,0,0-1.75,1.16c-2,5.87-4.17,11.7-6.26,17.56L294.44,70.3c-.1.29-.16.58-.24.87l.2.11q5.75-5.15,11.48-10.3m13.46,15.41c.87-.08,2.11.21,2.51-.42s-.48-1.57-.84-2.36c-1.72-3.85-3.49-7.68-5.24-11.53-.24-.52-.38-1.13-1.16-.42q-9,8.19-18.13,16.35c-.11.1-.19.22-.45.52,8-.73,15.63-1.42,23.31-2.14"/></g></g></svg>