<svg xmlns="http://www.w3.org/2000/svg" viewBox="0 0 498.96 273.57"><defs><style>.cls-1{fill:#100d0f;}.cls-2{font-size:123px;}.cls-2,.cls-3,.cls-4,.cls-5,.cls-6,.cls-8{fill:#fff;}.cls-2,.cls-3,.cls-4{font-family:NotoSans-ExtraBoldItalic, Noto Sans;font-style:italic;}.cls-2,.cls-3,.cls-4,.cls-5,.cls-6{font-weight:800;}.cls-3{font-size:123px;}.cls-4{font-size:123px;}.cls-5{font-size:72.92px;}.cls-5,.cls-6{font-family:NotoSans-ExtraBold, Noto Sans;}.cls-6{font-size:72.92px;}.cls-7{fill:none;stroke:#fff;stroke-miterlimit:10;stroke-width:0.75px;}</style></defs><title>Asset 11</title><g id="Layer_2" data-name="Layer 2"><g id="Layer_1-2" data-name="Layer 1"><polygon class="cls-1" points="5.02 130.62 0 237.63 485.22 179.6 498.96 69.64 5.02 130.62"/><polygon class="cls-1" points="74.16 49.22 71.37 117.77 249.15 95.84 250.63 21.17 74.16 49.22"/><text class="cls-2" transform="matrix(0.99, -0.12, 0.12, 0.99, 26.77, 225.61)">I</text><text class="cls-3" transform="translate(98.17 216.79) rotate(-7.04)">N</text><text class="cls-2" transform="matrix(0.99, -0.12, 0.12, 0.99, 214.53, 202.43)">T</text><text class="cls-4" transform="translate(302.78 191.53) rotate(-7.04)">R</text><text class="cls-4" transform="translate(401.65 179.32) rotate(-7.04)">O</text><text class="cls-5" transform="translate(78.01 107.25) rotate(-7.04)">O</text><text class="cls-6" transform="translate(150.6 98.29) rotate(-7.04)">P</text><text class="cls-6" transform="translate(211.18 90.81) rotate(-7.04)">S</text><polygon class="cls-1" points="255.9 21.76 253.3 94.31 376.31 78.87 255.9 21.76"/><line class="cls-7" x1="90.36" y1="118.25" x2="84.95" y2="230.68"/><line class="cls-7" x1="196.05" y1="104.61" x2="190.62" y2="217.32"/><line class="cls-7" x1="292.56" y1="92.6" x2="287.12" y2="205.57"/><line class="cls-7" x1="398.49" y1="82.21" x2="392.98" y2="196.63"/><line class="cls-7" x1="137.94" y1="33.82" x2="134.23" y2="110.97"/><line class="cls-7" x1="197.75" y1="27.47" x2="194.04" y2="104.62"/><polygon class="cls-8" points="388.46 45.79 316.78 114.11 296.27 68.74 263.63 75.21 275 32.17 241.93 3.69 388.46 45.79"/><path d="M372.45,35.86l17.74,5a5.93,5.93,0,0,1,1.46.54c1.69,1,1.79,3.15.19,4.72L345,91.84q-12.76,12.45-25.51,24.92c-2.21,2.16-4.32,1.89-5.51-.7q-9.21-20.18-18.4-40.35a1.31,1.31,0,0,0-1.51-.92c-7.14.69-14.3,1.33-21.45,2-3.95.36-7.91.73-11.87,1.08-2.42.21-4.06-1.83-3.21-3.93,1.91-4.76,3.49-9.63,5.23-14.44,1.5-4.13,3-8.27,4.42-12.41,1.56-4.4,3.12-8.8,4.71-13.19a1.38,1.38,0,0,0-.54-1.78Q255.89,19.32,240.44,6.49a23,23,0,0,1-2-1.71,2.64,2.64,0,0,1-.57-3A2.83,2.83,0,0,1,240.72,0a9.14,9.14,0,0,1,1.94.39C253,3.17,263.35,6.18,273.74,8.9c13.93,3.66,27.75,7.72,41.68,11.39,13.12,3.45,26.14,7.3,39.26,10.73,5.94,1.56,11.83,3.28,17.75,4.93a.29.29,0,0,1,0-.09m4.33,11.67L306.37,52.3l-13.25.91c-1.45.1-1.46.11-.83,1.48q5.19,11.36,10.4,22.72,7.14,15.66,14.29,31.3c.77,1.69.74,1.69,2,.42l27.38-26.75,35.31-34.49.71-.73-5.65.37M253.15,9.31s-.05.09-.08.14l5.36,4.44q8.82,7.31,17.63,14.61a3.34,3.34,0,0,0,1.91.76q16.89,1.74,33.78,3.47l35.55,3.7c2.42.26,4.85.48,7.27.72l.06-.1L253.15,9.31m24.6,46.07,7.24-6.5a4.07,4.07,0,0,1,2.63-1.11l26.7-1.8,41.09-2.77.34-.11c-4.76-.48-9.37-.94-14-1.42l-38.13-4q-12.42-1.28-24.83-2.57a1.3,1.3,0,0,0-1.59,1c-1.85,5.33-3.78,10.63-5.68,16l-4.17,11.71c-.09.26-.14.52-.22.79l.19.09,10.42-9.34m12.22,14c.79-.07,1.92.2,2.28-.37s-.44-1.43-.76-2.15c-1.57-3.49-3.17-7-4.76-10.47-.22-.47-.34-1-1.05-.38q-8.22,7.44-16.47,14.84c-.09.09-.17.2-.41.48l21.17-2"/></g></g></svg>