<svg xmlns="http://www.w3.org/2000/svg" viewBox="0 0 64 64" id="renovation" fill="#fff"><path d="M40.5 30a3.52 3.52 0 0 0-1.4-2.8 1 1 0 1 0-1.2 1.6 1.5 1.5 0 1 1-1.8 0 1 1 0 1 0-1.2-1.6 3.486 3.486 0 0 0 1.1 6.137v3.326a3.486 3.486 0 0 0-1.1 6.137 1 1 0 0 0 1.2-1.6 1.5 1.5 0 1 1 1.8 0 1 1 0 0 0 1.2 1.6 3.486 3.486 0 0 0-1.1-6.137v-3.326A3.494 3.494 0 0 0 40.5 30zm-14.031-3H23a1 1 0 0 0-1 1v4a1 1 0 0 0 1 1h2.5v8.75a1 1 0 0 0 2 0V33H30a1 1 0 0 0 1-1v-.468A4.536 4.536 0 0 0 26.469 27zM24 31v-2h2.469a2.535 2.535 0 0 1 2.473 2z"></path><path d="m52 33.693 7.352-2.756a1 1 0 0 0 .324-1.674L49 19.477V10a1 1 0 0 0-1-1h-6a1 1 0 0 0-1 1v2.143l-8.324-7.63a1 1 0 0 0-1.366.013l-27 25.75a1 1 0 0 0 .338 1.66L12 34.694V51a1 1 0 0 0 1 1h38a1 1 0 0 0 1-1Zm-1.352-1.63A1 1 0 0 0 50 33v17H14V34a1 1 0 0 0-.648-.937l-6.508-2.44L32.014 6.62l9.31 8.535A1 1 0 0 0 43 14.416V11h4v8.916a.999.999 0 0 0 .324.738l9.799 8.982Z"></path></svg>