<svg xmlns="http://www.w3.org/2000/svg" xmlns:xlink="http://www.w3.org/1999/xlink" viewBox="0 0 276.85 190.07"><defs><style>.cls-1{fill:none;}.cls-2{clip-path:url(#clip-path);}.cls-3{fill:#8bc3a2;}.cls-4{fill:#bc6374;}.cls-5{fill:#d4eee1;}.cls-6{fill:#0b0146;}</style><clipPath id="clip-path" transform="translate(0 0)"><rect class="cls-1" width="276.84" height="190.07"/></clipPath></defs><title>Asset 1</title><g id="Layer_2" data-name="Layer 2"><g id="Layer_1-2" data-name="Layer 1"><g class="cls-2"><g class="cls-2"><path d="M271.79,0c3.57-.06,5.77,3.05,4.85,7Q263.35,64.43,250,121.87q-7.26,31.31-14.52,62.59c-1.25,5.41-4.71,7.07-9,4.28q-33.56-21.66-67.08-43.37a2.34,2.34,0,0,0-3.18.08q-15.28,12-30.63,23.82c-5.66,4.38-11.3,8.79-17,13.16-3.48,2.67-8,1.16-8.7-2.85-1.71-9.07-4-18-6.07-27-1.74-7.72-3.57-15.4-5.35-23.11q-2.85-12.28-5.65-24.58a2.48,2.48,0,0,0-2.55-2.18Q44.42,98.36,8.52,93.88a45.06,45.06,0,0,1-4.66-.67,4.8,4.8,0,0,1-3.77-4,5.09,5.09,0,0,1,2.55-5.43A16.55,16.55,0,0,1,6,82.47C24.4,76.62,43,71.16,61.38,65.22,86.07,57.24,111,50,135.68,42c23.26-7.5,46.74-14.3,70-21.82,10.51-3.42,21.14-6.51,31.71-9.75a1.42,1.42,0,0,1,0-.16L269,.6a10.27,10.27,0,0,1,2.75-.6m-43,183.07L271.26,9.83,8.05,88.2,85.88,99.29l24.52,76.35,43.25-41.51Z" transform="translate(0 0)"/><path d="M271.25,9.83,228.81,183.07l-75.16-48.94L110.4,175.64,85.88,99.29,8.05,88.2Zm-8.19,9.73c.11-.48.2-1,.38-1.79-2.9,2.13-5.57,4.08-8.23,6.05L153,99.39q-9.62,7.11-19.21,14.24c-2.1,1.56-2.11,1.59.17,3.05q18.9,12.21,37.83,24.39l52.07,33.62c2.8,1.82,2.76,1.84,3.51-1.36q7.77-33.59,15.58-67.16Q253,62.86,263.06,19.56M218.58,38a4.12,4.12,0,0,0,.43-.49c-7.69,3.88-15.14,7.67-22.62,11.42q-30.84,15.51-61.7,31Q114.6,90,94.52,100.11c-1.43.71-1.77,1.54-1.39,3.14,2.35,9.88,4.58,19.8,6.85,29.7q2.51,10.91,5,21.81c.11.48.28.94.42,1.42l.38,0,6.75-24.31c1.56-5.62,3.13-11.24,4.67-16.88a7.41,7.41,0,0,1,2.92-4.23q19.39-14.3,38.76-28.65L218.58,38m-7.14-8.37v-.19Q121,57.62,30.53,85.82c0,.1,0,.19,0,.29L43,87.65q20.48,2.5,40.94,5.06a6.16,6.16,0,0,0,3.62-.7q27.32-13.77,54.64-27.53Q170.93,50,199.71,35.59c3.92-2,7.83-4,11.73-6M144.69,141.2c1.13-.87,3.1-1.57,3.09-2.78s-2.05-1.74-3.23-2.52c-5.77-3.78-11.58-7.51-17.38-11.26-.8-.51-1.52-1.23-2,.43q-5.25,19.27-10.57,38.51a10.91,10.91,0,0,0-.16,1.11c10.31-8,20.27-15.74,30.22-23.49" transform="translate(0 0)"/><path class="cls-3" d="M263.44,17.77c-.18.82-.27,1.31-.38,1.79q-10,43.3-20.1,86.61-7.78,33.58-15.58,67.16c-.75,3.2-.71,3.18-3.51,1.36q-26-16.81-52.07-33.62Q152.89,128.86,134,116.68c-2.28-1.46-2.27-1.49-.17-3.05q9.6-7.12,19.21-14.24l102.2-75.57c2.66-2,5.33-3.92,8.23-6.05" transform="translate(0 0)"/><path class="cls-4" d="M219,37.49a4.12,4.12,0,0,1-.43.49L158.93,82.07q-19.38,14.34-38.76,28.65a7.41,7.41,0,0,0-2.92,4.23c-1.54,5.64-3.11,11.26-4.67,16.88q-3.37,12.16-6.75,24.31l-.38,0c-.14-.48-.31-.94-.42-1.42q-2.53-10.9-5-21.81c-2.27-9.9-4.5-19.82-6.85-29.7-.38-1.6,0-2.43,1.39-3.14Q114.62,90,134.69,79.9q30.85-15.5,61.7-31c7.48-3.75,14.93-7.54,22.62-11.42" transform="translate(0 0)"/><path class="cls-5" d="M211.44,29.42v.19c-3.9,2-7.81,4-11.73,6Q171,50.05,142.19,64.48,114.86,78.22,87.55,92a6.16,6.16,0,0,1-3.62.7Q63.46,90.13,43,87.65L30.54,86.11c0-.1,0-.19,0-.29l180.91-56.4" transform="translate(0 0)"/><path class="cls-6" d="M147.78,138.42c0,1.21-2,1.91-3.09,2.78-9.95,7.75-19.91,15.49-30.22,23.49a10.91,10.91,0,0,1,.16-1.11q5.3-19.25,10.57-38.51c.45-1.66,1.17-.94,2-.43,5.8,3.75,11.61,7.48,17.38,11.26,1.18.78,3.22,1.29,3.23,2.52" transform="translate(0 0)"/></g></g></g></g></svg>