<svg xmlns="http://www.w3.org/2000/svg" xmlns:xlink="http://www.w3.org/1999/xlink" viewBox="0 0 50.74 34.84"><defs><style>.cls-1{fill:none;}.cls-2{clip-path:url(#clip-path);}.cls-3{fill:#8bc3a2;}.cls-4{fill:#bc6374;}.cls-5{fill:#d4eee1;}.cls-6{fill:#0b0146;}</style><clipPath id="clip-path" transform="translate(0 0)"><rect class="cls-1" width="50.74" height="34.84"/></clipPath></defs><title>Asset 2</title><g id="Layer_2" data-name="Layer 2"><g id="Layer_1-2" data-name="Layer 1"><g class="cls-2"><g class="cls-2"><path d="M.93,0A.94.94,0,0,0,0,1.28Q2.47,11.81,4.92,22.34q1.32,5.73,2.66,11.47c.23,1,.86,1.3,1.65.78l12.3-7.94a.42.42,0,0,1,.58,0L27.73,31l3.11,2.41a1,1,0,0,0,1.59-.52c.31-1.67.74-3.3,1.11-5,.32-1.42.65-2.82,1-4.24s.7-3,1-4.5a.45.45,0,0,1,.46-.4c4.39-.53,8.78-1.08,13.16-1.62a7.55,7.55,0,0,0,.85-.13.85.85,0,0,0,.69-.73.93.93,0,0,0-.46-1,2.64,2.64,0,0,0-.61-.23C46.27,14,42.87,13,39.49,12,35,10.49,30.4,9.16,25.87,7.71c-4.26-1.38-8.56-2.62-12.82-4-1.93-.63-3.88-1.2-5.82-1.79a0,0,0,0,0,0,0L1.43.11A1.88,1.88,0,0,0,.93,0M8.81,33.56,1,1.8,49.27,16.17,35,18.2l-4.49,14-7.93-7.6Z" transform="translate(0 0)"/><path d="M1,1.8,8.8,33.56l13.78-9,7.93,7.6L35,18.2l14.27-2ZM2.53,3.59l-.07-.33L4,4.37,22.7,18.22l3.52,2.61c.39.28.39.29,0,.56l-6.94,4.47L9.71,32c-.51.33-.51.34-.64-.25Q7.64,25.62,6.21,19.46,4.37,11.52,2.53,3.59M10.68,7s0,0-.08-.09L14.75,9l11.3,5.68,7.37,3.7a.42.42,0,0,1,.25.57c-.43,1.82-.84,3.63-1.25,5.45l-.93,4c0,.08,0,.17-.08.26h-.07l-1.23-4.46c-.29-1-.58-2.06-.86-3.09a1.41,1.41,0,0,0-.53-.78Q25.17,17.68,21.61,15L10.68,7M12,5.43v0L45.15,15.73a.07.07,0,0,1,0,0l-2.28.28-7.5.93a1.17,1.17,0,0,1-.67-.12q-5-2.54-10-5.05L14.14,6.53,12,5.43M24.22,25.88c-.2-.16-.57-.29-.57-.51s.38-.32.6-.46l3.18-2.06c.15-.1.28-.23.37.08.63,2.35,1.29,4.7,1.93,7.05a1.43,1.43,0,0,1,0,.21l-5.54-4.31" transform="translate(0 0)"/><path class="cls-3" d="M2.46,3.26l.07.33q1.83,7.94,3.68,15.87,1.42,6.16,2.86,12.31c.13.59.13.58.64.25l9.54-6.16,6.94-4.47c.42-.27.42-.28,0-.56L22.7,18.22,4,4.37,2.46,3.26" transform="translate(0 0)"/><path class="cls-4" d="M10.6,6.87c.05.06.06.08.08.09L21.61,15q3.56,2.64,7.11,5.25a1.41,1.41,0,0,1,.53.78c.28,1,.57,2.06.86,3.1l1.23,4.45h.07c0-.09.06-.18.08-.26l.93-4c.41-1.82.82-3.63,1.25-5.45a.42.42,0,0,0-.25-.57l-7.37-3.7L14.75,9,10.6,6.87" transform="translate(0 0)"/><path class="cls-5" d="M12,5.39v0l2.15,1.1,10.54,5.29q5,2.52,10,5.05a1.18,1.18,0,0,0,.67.12l7.5-.93,2.28-.28a.07.07,0,0,0,0,0L12,5.39" transform="translate(0 0)"/><path class="cls-6" d="M23.65,25.37c0,.22.37.35.57.51l5.54,4.31a1.22,1.22,0,0,0,0-.21c-.64-2.35-1.3-4.7-1.93-7-.09-.31-.22-.18-.37-.08l-3.18,2.06c-.22.14-.59.24-.6.46" transform="translate(0 0)"/></g></g></g></g></svg>