<svg xmlns="http://www.w3.org/2000/svg" xmlns:xlink="http://www.w3.org/1999/xlink" viewBox="0 0 490.54 296.4"><defs><style>.cls-1,.cls-2{fill:none;}.cls-2{stroke:#010103;stroke-miterlimit:10;stroke-dasharray:3 3;}.cls-3{clip-path:url(#clip-path);}.cls-4{fill:#383a97;}</style><clipPath id="clip-path"><rect class="cls-1" x="239.25" y="19.07" width="14.08" height="14.08"/></clipPath></defs><title>Asset 3</title><g id="Layer_2" data-name="Layer 2"><g id="Layer_1-2" data-name="Layer 1"><path d="M15.27,4.05C19.35,5.3,23.46,6.5,27.53,7.82c9,2.91,18.07,5.54,27.06,8.43,9.55,3.08,19.19,5.89,28.73,9,7.12,2.3,14.3,4.41,21.44,6.67a6.66,6.66,0,0,1,1.28.5,2,2,0,0,1,1,2.1A1.84,1.84,0,0,1,105.57,36a13.69,13.69,0,0,1-1.8.26Q89.9,38,76,39.72a1,1,0,0,0-1,.85c-.71,3.17-1.45,6.33-2.18,9.5-.69,3-1.4,6-2.07,8.94-.78,3.48-1.68,6.93-2.35,10.44a2,2,0,0,1-3.36,1.1L58.5,65.46q-5.93-4.6-11.85-9.21a.89.89,0,0,0-1.22,0q-13,8.4-25.95,16.77c-1.67,1.08-3,.43-3.49-1.66l-5.61-24.2Q5.22,24.92.08,2.7C-.27,1.18.57,0,2,0A4.47,4.47,0,0,1,3,.23L15.28,4s0,0,0,.06M5.19,6.87c.06.32.1.51.14.69l7.77,33.5,6,26c.29,1.23.27,1.23,1.36.53l20.13-13,14.64-9.44c.88-.57.87-.58.06-1.18l-7.43-5.5L8.37,9.21,5.19,6.87m20.1,4.5v.08c1.51.77,3,1.55,4.54,2.31q11.12,5.59,22.25,11.17L73.2,35.58a2.41,2.41,0,0,0,1.4.27l15.84-2,4.81-.59v-.11l-70-21.82m40.84,49,.15,0c.06-.19.12-.37.16-.55.66-2.81,1.31-5.63,2-8.44.88-3.83,1.74-7.66,2.65-11.49a.91.91,0,0,0-.54-1.21C65.33,36.12,60.15,33.5,55,30.9l-23.86-12L22.37,14.5a1.53,1.53,0,0,0,.16.19l23.07,17q7.5,5.54,15,11.07a2.94,2.94,0,0,1,1.13,1.64c.59,2.18,1.2,4.36,1.81,6.53q1.31,4.71,2.6,9.4M62.8,63.69a3.7,3.7,0,0,0-.07-.43q-2-7.44-4.08-14.89c-.18-.65-.46-.37-.77-.17-2.24,1.45-4.49,2.89-6.72,4.36-.46.29-1.24.49-1.25,1s.76.73,1.2,1.07c3.84,3,7.7,6,11.69,9.09"/><path class="cls-2" d="M114.5,123.6c28.38,39.31,79.51,42.1,124.26,41.69l172.39-1.6c9.55-.09,19.66,0,27.84,5.58,5.95,4.08,10.21,10.64,14,17.23a294.35,294.35,0,0,1,37,109.83"/><g class="cls-3"><polygon class="cls-4" points="246.29 19.07 248.28 24.12 253.33 26.11 248.28 28.1 246.29 33.15 244.3 28.1 239.25 26.11 244.3 24.12 246.29 19.07"/></g></g></g></svg>