<svg width="1535" height="563" viewBox="0 0 1535 563" fill="none" xmlns="http://www.w3.org/2000/svg">
<path d="M0 0.459991V383.57C43.9 411.47 89.4 441.69 112.92 487.84C118.82 499.42 123.25 511.84 130.92 522.37C161.3 563.92 226.16 557.21 272.92 535.31C319.68 513.41 364.58 480.07 416.2 481.52C473.48 483.13 519.65 526.97 572.96 547.88C636.28 572.72 710.1 563.63 770.2 531.82C830.3 500.01 884.81 445.35 952.62 449.35C995.23 451.87 1032.49 477.84 1073.42 489.88C1149.3 512.21 1230.03 485.38 1304.52 458.82C1351.9 441.93 1400.94 424.01 1436.52 388.61C1469.99 355.34 1493.35 306.01 1534.63 287.72V0.459991H0Z" fill="black"/>
</svg>
