<svg xmlns="http://www.w3.org/2000/svg" viewBox="0 0 33 33.1"><defs><style>.cls-1{fill:#00a96c;}.cls-2{fill:#070608;}</style></defs><title>Asset 9</title><g id="Layer_2" data-name="Layer 2"><g id="Layer_1-2" data-name="Layer 1"><path class="cls-1" d="M0,33.1c.51-1.88,1-3.66,1.48-5.44.25-.89.51-1.78.73-2.68a1,1,0,0,0-.07-.65A16.28,16.28,0,0,1,4.81,5,15.65,15.65,0,0,1,18.38.12,16.41,16.41,0,0,1,17,32.83a16.14,16.14,0,0,1-7.89-1.78,1.22,1.22,0,0,0-.9-.09c-2.55.69-5.12,1.35-7.68,2L0,33.1m4-3.92.54-.12c1.38-.36,2.76-.71,4.14-1.09a1,1,0,0,1,.88.12,13.19,13.19,0,0,0,6,1.93A13.64,13.64,0,1,0,4.94,23.54a1.55,1.55,0,0,1,.19,1.4c-.41,1.37-.77,2.77-1.17,4.24"/><path class="cls-2" d="M4,29.18c.4-1.47.76-2.87,1.17-4.24a1.55,1.55,0,0,0-.19-1.4A13.64,13.64,0,1,1,15.55,30a13.19,13.19,0,0,1-6-1.93A1,1,0,0,0,8.64,28c-1.38.38-2.76.73-4.14,1.09L4,29.18M8,12.43c0,.34.07.68.13,1a10.64,10.64,0,0,0,1.88,4,16.24,16.24,0,0,0,8.63,6.92,6.33,6.33,0,0,0,2.71.46c1.81-.22,3.63-1.26,3.66-3.52a.94.94,0,0,0-.27-.68c-1.15-.64-2.32-1.24-3.49-1.85a.68.68,0,0,0-.94.26c-.32.41-.66.79-1,1.18-.62.68-.83.72-1.66.3a12,12,0,0,1-5.07-4.83.93.93,0,0,1,.11-1.2c.3-.34.61-.67.89-1a1,1,0,0,0,.21-1c-.41-1.05-.77-2.13-1.21-3.16a1.48,1.48,0,0,0-.71-.75,2,2,0,0,0-2.23.37A4.86,4.86,0,0,0,8,12.43"/></g></g></svg>